<?xml version="1.0" encoding="UTF-8" standalone="no"?>
<svg
   version="1.1"
   id="Layer_1"
   x="0px"
   y="0px"
   width="100%"
   viewBox="0 0 500 500"
   enable-background="new 0 0 500 500"
   xml:space="preserve"
   sodipodi:docname="hatch-academy-favicon.svg"
   inkscape:version="1.4 (86a8ad7, 2024-10-11)"
   xmlns:inkscape="http://www.inkscape.org/namespaces/inkscape"
   xmlns:sodipodi="http://sodipodi.sourceforge.net/DTD/sodipodi-0.dtd"
   xmlns="http://www.w3.org/2000/svg"
   xmlns:svg="http://www.w3.org/2000/svg"><defs
   id="defs18" /><sodipodi:namedview
   id="namedview18"
   pagecolor="#ffffff"
   bordercolor="#000000"
   borderopacity="0.25"
   inkscape:showpageshadow="2"
   inkscape:pageopacity="0.0"
   inkscape:pagecheckerboard="0"
   inkscape:deskcolor="#d1d1d1"
   inkscape:zoom="1.2091526"
   inkscape:cx="231.15362"
   inkscape:cy="189.80235"
   inkscape:window-width="1920"
   inkscape:window-height="1057"
   inkscape:window-x="-8"
   inkscape:window-y="-8"
   inkscape:window-maximized="1"
   inkscape:current-layer="Layer_1"
   showguides="true" />

<path
   fill="#5190d5"
   opacity="1"
   stroke="none"
   d="m 249.3629,95.493335 c 9.05185,-17.441583 18.04435,-34.91593 27.17817,-52.312207 5.38621,-10.258707 10.57756,-20.663874 16.61403,-30.514354 7.20444,-11.75643 26.73048,-16.427901 37.80834,-9.28072 14.47492,9.338931 17.52299,23.093854 10.7,36.616768 -6.48639,12.855789 -13.48249,25.439819 -20.17536,38.18709 -11.26356,21.452632 -22.25796,43.057448 -33.77789,64.363498 -5.87427,10.86447 -11.21809,22.58712 -19.33145,31.49537 -13.52141,14.84607 -30.52414,11.18945 -42.30942,-4.02921 -2.64893,-3.42065 -3.80692,-8.05723 -5.27541,-13.20512 3.42195,-8.84536 6.02265,-16.84438 9.61435,-24.34349 5.98411,-12.49441 12.60303,-24.66863 18.95464,-36.977625 z"
   id="path2"
   style="stroke-width:1.72721" />
<path
   fill="#d86f46"
   opacity="1"
   stroke="none"
   d="m 185.99131,179.45964 c 3.49654,6.61702 8.57338,12.8573 10.17365,19.92639 3.79387,16.7591 -13.9774,32.58682 -29.02708,32.41497 C 120.44955,231.2679 73.760154,230.80325 27.074136,230.10354 15.800985,229.93459 1.6755467,217.79701 0.40859072,207.96203 -1.7537417,191.17674 4.994636,178.74727 19.289098,174.15453 c 2.969407,-0.95404 6.489137,-0.0857 9.755231,-0.0888 29.108136,-0.0279 58.216244,-0.0626 88.875811,0.03 23.6559,2.79107 46.3045,-1.81976 68.07117,5.36382 z"
   id="path3"
   style="stroke-width:1.72721" />
<path
   fill="#356698"
   opacity="1"
   stroke="none"
   d="m 160.63815,268.72069 c 14.60224,-1.67165 27.65542,1.48897 33.45953,16.65142 2.37233,6.19745 2.68887,15.6286 -0.3104,21.16206 -11.77536,21.72503 -25.18914,42.51893 -38.10032,63.59027 -12.40068,20.23821 -25.06724,40.30607 -37.3437,60.62266 -5.34952,8.85308 -12.99872,14.52276 -22.567247,16.1197 -12.784998,2.13373 -27.596826,-10.50846 -28.836193,-23.78541 -0.978477,-10.48228 1.303619,-19.48487 7.987173,-28.62672 11.03417,-15.09258 19.69452,-32.00559 29.470137,-48.07781 4.20385,-6.91159 8.69477,-13.63932 13.81012,-21.23448 3.25639,-4.60739 5.66485,-8.49918 8.27567,-12.24224 10.67408,-15.30311 16.84573,-34.27964 34.15523,-44.17945 z"
   id="path4"
   style="stroke-width:1.72721" />
<path
   fill="#356698"
   opacity="1"
   stroke="none"
   d="m 380.8199,324.70052 c 9.27852,15.05299 18.53348,30.12132 27.84263,45.15439 8.03676,12.97841 16.78112,25.55027 24.01621,38.98063 6.5992,12.24998 -4.875,31.94161 -20.18364,36.39645 -10.80567,3.14448 -24.15174,-1.92164 -30.39864,-12.16386 -9.55137,-15.66009 -18.47919,-31.72347 -28.14503,-47.30653 -9.79906,-15.79782 -20.35956,-31.09708 -30.22812,-46.85116 -6.42693,-10.25989 -14.31238,-20.24957 -17.86126,-31.57574 -8.04676,-25.68061 5.43189,-42.29862 35.23153,-38.23688 5.35998,5.72638 10.40279,10.39594 14.19108,15.96426 8.8326,12.98296 17.06167,26.39828 25.53524,39.63844 z"
   id="path5"
   style="stroke-width:1.72721" />
<path
   fill="#d87047"
   opacity="1"
   stroke="none"
   d="m 222.14655,334.99116 c 10.70347,-23.1321 35.74647,-22.87531 48.72634,-7.85067 7.27307,8.41887 11.14285,19.94055 16.51407,30.082 9.47207,17.88426 19.11993,35.67448 28.32233,53.70402 9.58487,18.7787 19.20968,37.56643 27.86682,56.80065 4.38495,9.74253 -2.0082,18.02256 -8.15414,24.33581 -7.42594,7.62823 -17.21117,10.06904 -27.58767,5.95813 -9.52833,-3.77483 -15.0517,-11.4889 -19.66991,-20.54421 -12.29949,-24.11651 -25.07924,-47.97507 -38.14792,-72.95453 -1.37645,-3.42444 -2.12389,-5.90286 -3.19295,-8.22535 -9.21403,-20.01782 -24.74042,-37.35327 -24.67697,-61.30585 z"
   id="path6"
   style="stroke-width:1.72721" />
<path
   fill="#94c3d3"
   opacity="1"
   stroke="none"
   d="m 324.00964,230.06326 c -10.96652,-2.06826 -16.8013,-9.48633 -20.37276,-19.77894 -4.2411,-12.22238 0.85343,-21.31617 9.41603,-30.37147 10.20917,-2.27804 19.44499,-4.79072 28.80956,-5.4913 12.89505,-0.96478 25.88735,-0.55987 38.83802,-0.74174 14.3106,-0.28078 28.6212,-0.56155 44.22626,-0.54513 19.71815,0.47212 38.14178,0.64707 56.56539,0.82201 0,0 -0.19288,0.10965 0.008,0.45688 1.10388,0.71852 2.00648,1.08987 2.90915,1.4612 9.58613,6.04081 16.38998,15.04504 15.14817,26.28164 -1.40706,12.73216 -8.36493,23.09355 -23.52464,26.15756 -17.38298,0.48067 -33.31654,0.96613 -49.25008,1.45155 -17.67265,0.10075 -35.34527,0.20142 -54.61188,0.30868 -17.11657,7.5e-4 -32.63906,-0.006 -48.16161,-0.0112 z"
   id="path7"
   style="stroke-width:1.72721" />
<path
   fill="#95c4d3"
   opacity="1"
   stroke="none"
   d="m 222.0657,335.63956 c 0.0174,23.30418 15.54379,40.63963 24.75782,60.65745 1.06906,2.32249 1.8165,4.80091 2.70359,7.85942 -7.53903,15.0179 -14.94547,29.4531 -22.63321,43.7288 -7.45203,13.838 -14.53007,27.96103 -22.99707,41.1296 -8.16264,12.6952 -25.63347,14.39834 -38.14023,4.2083 -13.47722,-10.98062 -14.18027,-22.96848 -8.73149,-33.12952 13.2771,-24.75952 25.97922,-49.84311 39.00124,-74.7476 8.57335,-16.39645 17.3003,-32.70833 26.03935,-49.70645 z"
   id="path8"
   style="stroke-width:1.72721" />
<path
   fill="#d87047"
   opacity="1"
   stroke="none"
   d="m 380.7125,173.0804 c -12.96268,0.78128 -25.95498,0.37637 -38.85003,1.34115 -9.36457,0.70058 -18.60039,3.21326 -28.54096,4.94299 5.5754,-10.85272 11.56004,-21.88324 18.07266,-32.57507 11.97038,-19.65194 23.93258,-39.32445 36.52678,-58.554845 7.18697,-10.974063 14.66932,-22.0773 23.77909,-31.288921 7.52403,-7.608186 23.7447,-4.690451 32.18502,2.950716 11.88993,10.764231 12.75987,23.158465 7.01203,33.294435 -14.05309,24.781805 -29.79584,48.555955 -44.93173,72.687335 -1.48787,2.37206 -3.48182,4.40984 -5.25286,7.20221 z"
   id="path9"
   style="stroke-width:1.72721" />
<path
   fill="#95c4d3"
   opacity="1"
   stroke="none"
   d="m 185.98013,178.83766 c -21.75549,-6.5616 -44.40409,-1.95076 -67.27729,-4.84134 -9.02511,-13.44367 -17.41348,-26.578 -25.502754,-39.9035 -9.025327,-14.86744 -18.62802,-29.46836 -26.301404,-45.055235 -3.979722,-8.084003 -1.673479,-17.809636 3.987525,-25.297956 7.078051,-9.362794 16.86301,-12.180347 28.051586,-9.898923 14.969917,3.052487 20.614997,16.173551 27.661837,27.550816 14.91766,24.084818 29.53569,48.364998 44.31059,72.543178 4.9667,8.1277 10.03621,16.18924 15.06991,24.90296 z"
   id="path10"
   style="stroke-width:1.72721" />
<path
   fill="#356698"
   opacity="1"
   stroke="none"
   d="m 248.84069,95.175405 c -5.8294,12.626925 -12.44832,24.801145 -18.43243,37.295555 -3.5917,7.49911 -6.1924,15.49813 -9.71308,23.69136 -8.80204,-14.89458 -17.09428,-30.22836 -25.46903,-45.51453 -5.83581,-10.651896 -12.05723,-21.090855 -17.61704,-31.890228 -7.65234,-14.86386 -15.60549,-29.643835 -22.02817,-45.074123 -7.224,-17.355359 9.58944,-35.372442 29.99077,-33.147258 10.61559,1.157864 18.10652,6.998806 22.96715,16.38462 8.96985,17.320634 17.65852,34.794369 26.5042,52.182991 4.37943,8.60903 8.84742,17.170603 13.79763,26.071613 z"
   id="path11"
   style="stroke-width:1.72721" />
<path
   fill="#5090d5"
   opacity="1"
   stroke="none"
   d="m 159.85438,268.63775 c -16.52573,9.98275 -22.69738,28.95928 -33.37146,44.26239 -2.61082,3.74306 -5.01928,7.63485 -8.08024,11.68926 -29.348459,0.72011 -58.136347,1.30812 -86.926988,1.65407 -13.190323,0.15855 -24.703769,-3.99873 -29.3985306,-17.82807 -6.2528267,-18.41887 1.5849674,-37.47806 23.8714966,-37.95329 33.427375,-0.7128 66.881079,-0.0285 100.321732,-0.24156 10.93633,-0.0696 21.86698,-1.08353 33.58399,-1.5828 z"
   id="path12"
   style="stroke-width:1.72721" />
<path
   fill="#5090d5"
   opacity="1"
   stroke="none"
   d="m 381.60435,324.63211 c -9.25802,-13.17175 -17.48709,-26.58707 -26.31969,-39.57003 -3.78829,-5.56832 -8.8311,-10.23788 -13.54728,-15.83771 43.34962,0.006 86.95477,0.0782 130.52931,1.29813 16.20595,0.45376 25.94013,11.08316 27.64986,27.25075 1.26518,11.96387 -12.06694,26.22697 -25.57822,26.88002 -15.1938,0.0406 -28.8974,0.0665 -42.60097,0.0922 -16.4495,-0.0607 -32.89901,-0.12114 -50.13301,-0.11341 z"
   id="path13"
   style="stroke-width:1.72721" />

<path
   fill="#fcfdfe"
   opacity="1"
   stroke="none"
   d="m 427.56689,229.88766 c 15.14977,-0.60756 31.08334,-1.09302 47.81756,-1.52339 -3.11723,0.60269 -7.02889,1.55897 -10.95413,1.62171 -12.02376,0.19215 -24.05273,0.0412 -36.86343,-0.0983 z"
   id="path15"
   style="stroke-width:1.72721" />



</svg>